<svg width="20" height="21" viewBox="0 0 20 21" fill="none" xmlns="http://www.w3.org/2000/svg">
<path d="M16.4512 9.16982e-08C15.9851 8.18751e-08 15.5235 0.0918123 15.0929 0.270195C14.6622 0.448578 14.2709 0.710037 13.9413 1.03965C13.6117 1.36925 13.3502 1.76055 13.1719 2.19121C12.9935 2.62186 12.9017 3.08343 12.9017 3.54957C12.9017 4.01571 12.9935 4.47728 13.1719 4.90793C13.3502 5.33859 13.6117 5.72989 13.9413 6.0595C14.2709 6.3891 14.6622 6.65056 15.0929 6.82895C15.5235 7.00733 15.9851 7.09914 16.4512 7.09914C17.3926 7.09893 18.2954 6.72475 18.9609 6.05893C19.6264 5.3931 20.0002 4.49017 20 3.54876C19.9998 2.60736 19.6256 1.7046 18.9598 1.03907C18.294 0.373552 17.391 -0.000213739 16.4496 9.16982e-08H16.4512ZM3.54957 9.16982e-08C3.08343 8.18751e-08 2.62186 0.0918123 2.19121 0.270195C1.76056 0.448578 1.36925 0.710037 1.03964 1.03965C0.710037 1.36925 0.448578 1.76055 0.270195 2.19121C0.0918125 2.62186 0 3.08343 0 3.54957C0 4.01571 0.0918125 4.47728 0.270195 4.90793C0.448578 5.33859 0.710037 5.72989 1.03964 6.0595C1.36925 6.3891 1.76056 6.65056 2.19121 6.82895C2.62186 7.00733 3.08343 7.09914 3.54957 7.09914C4.49098 7.09893 5.39374 6.72475 6.05926 6.05893C6.72478 5.3931 7.09855 4.49017 7.09833 3.54876C7.09812 2.60736 6.72394 1.7046 6.05812 1.03907C5.39229 0.373552 4.48936 -0.000213739 3.54796 9.16982e-08H3.54957Z" fill="#F8F8F8"/>
<path d="M16.4512 13C15.9851 13 15.5235 13.0918 15.0929 13.2702C14.6622 13.4486 14.2709 13.71 13.9413 14.0396C13.6117 14.3693 13.3502 14.7606 13.1719 15.1912C12.9935 15.6219 12.9017 16.0834 12.9017 16.5496C12.9017 17.0157 12.9935 17.4773 13.1719 17.9079C13.3502 18.3386 13.6117 18.7299 13.9413 19.0595C14.2709 19.3891 14.6622 19.6506 15.0929 19.8289C15.5235 20.0073 15.9851 20.0991 16.4512 20.0991C17.3926 20.0989 18.2954 19.7248 18.9609 19.0589C19.6264 18.3931 20.0002 17.4902 20 16.5488C19.9998 15.6074 19.6256 14.7046 18.9598 14.0391C18.294 13.3736 17.391 12.9998 16.4496 13H16.4512ZM3.54957 13C3.08343 13 2.62186 13.0918 2.19121 13.2702C1.76056 13.4486 1.36925 13.71 1.03964 14.0396C0.710037 14.3693 0.448578 14.7606 0.270195 15.1912C0.0918125 15.6219 0 16.0834 0 16.5496C0 17.0157 0.0918125 17.4773 0.270195 17.9079C0.448578 18.3386 0.710037 18.7299 1.03964 19.0595C1.36925 19.3891 1.76056 19.6506 2.19121 19.8289C2.62186 20.0073 3.08343 20.0991 3.54957 20.0991C4.49098 20.0989 5.39374 19.7248 6.05926 19.0589C6.72478 18.3931 7.09855 17.4902 7.09833 16.5488C7.09812 15.6074 6.72394 14.7046 6.05812 14.0391C5.39229 13.3736 4.48936 12.9998 3.54796 13H3.54957Z" fill="#F8F8F8"/>
</svg>
